<?xml version="1.0" encoding="utf-8"?>
<svg version="1.1" xmlns:xlink="http://www.w3.org/1999/xlink" width="17px" height="17px" xmlns="http://www.w3.org/2000/svg">
  <g transform="matrix(1 0 0 1 -587 -452 )">
    <path d="M 11.2337239583333 14.0670572916667  C 11.3001302083333 14.0006510416667  11.3333333333333 13.9157986111111  11.3333333333333 13.8125  L 11.3333333333333 12.0416666666667  C 11.3333333333333 11.9383680555556  11.3001302083333 11.853515625  11.2337239583333 11.787109375  C 11.1673177083333 11.720703125  11.0824652777778 11.6875  10.9791666666667 11.6875  L 9.91666666666667 11.6875  L 9.91666666666667 6.02083333333333  C 9.91666666666667 5.91753472222222  9.88346354166667 5.83268229166667  9.81705729166667 5.76627604166667  C 9.75065104166667 5.69986979166667  9.66579861111111 5.66666666666667  9.5625 5.66666666666667  L 6.02083333333333 5.66666666666667  C 5.91753472222222 5.66666666666667  5.83268229166667 5.69986979166667  5.76627604166667 5.76627604166667  C 5.69986979166667 5.83268229166667  5.66666666666667 5.91753472222222  5.66666666666667 6.02083333333333  L 5.66666666666667 7.79166666666667  C 5.66666666666667 7.89496527777778  5.69986979166667 7.97981770833333  5.76627604166667 8.04622395833333  C 5.83268229166667 8.11263020833333  5.91753472222222 8.14583333333333  6.02083333333333 8.14583333333333  L 7.08333333333333 8.14583333333333  L 7.08333333333333 11.6875  L 6.02083333333333 11.6875  C 5.91753472222222 11.6875  5.83268229166667 11.720703125  5.76627604166667 11.787109375  C 5.69986979166667 11.853515625  5.66666666666667 11.9383680555556  5.66666666666667 12.0416666666667  L 5.66666666666667 13.8125  C 5.66666666666667 13.9157986111111  5.69986979166667 14.0006510416667  5.76627604166667 14.0670572916667  C 5.83268229166667 14.1334635416667  5.91753472222222 14.1666666666667  6.02083333333333 14.1666666666667  L 10.9791666666667 14.1666666666667  C 11.0824652777778 14.1666666666667  11.1673177083333 14.1334635416667  11.2337239583333 14.0670572916667  Z M 9.81705729166667 4.150390625  C 9.88346354166667 4.083984375  9.91666666666667 3.99913194444444  9.91666666666667 3.89583333333333  L 9.91666666666667 2.125  C 9.91666666666667 2.02170138888889  9.88346354166667 1.93684895833333  9.81705729166667 1.87044270833333  C 9.75065104166667 1.80403645833333  9.66579861111111 1.77083333333333  9.5625 1.77083333333333  L 7.4375 1.77083333333333  C 7.33420138888889 1.77083333333333  7.24934895833333 1.80403645833333  7.18294270833333 1.87044270833333  C 7.11653645833333 1.93684895833333  7.08333333333333 2.02170138888889  7.08333333333333 2.125  L 7.08333333333333 3.89583333333333  C 7.08333333333333 3.99913194444444  7.11653645833333 4.083984375  7.18294270833333 4.150390625  C 7.24934895833333 4.216796875  7.33420138888889 4.25  7.4375 4.25  L 9.5625 4.25  C 9.66579861111111 4.25  9.75065104166667 4.216796875  9.81705729166667 4.150390625  Z M 15.8600260416667 4.2333984375  C 16.6200086805556 5.53569878472222  17 6.95789930555555  17 8.5  C 17 10.0421006944444  16.6200086805556 11.4643012152778  15.8600260416667 12.7666015625  C 15.1000434027778 14.0689019097222  14.0689019097222 15.1000434027778  12.7666015625 15.8600260416667  C 11.4643012152778 16.6200086805556  10.0421006944444 17  8.5 17  C 6.95789930555556 17  5.53569878472222 16.6200086805556  4.2333984375 15.8600260416667  C 2.93109809027778 15.1000434027778  1.89995659722222 14.0689019097222  1.13997395833333 12.7666015625  C 0.379991319444444 11.4643012152778  0 10.0421006944444  0 8.5  C 0 6.95789930555555  0.379991319444444 5.53569878472222  1.13997395833333 4.2333984375  C 1.89995659722222 2.93109809027778  2.93109809027778 1.89995659722222  4.2333984375 1.13997395833333  C 5.53569878472222 0.379991319444443  6.95789930555556 0  8.5 0  C 10.0421006944444 0  11.4643012152778 0.379991319444443  12.7666015625 1.13997395833333  C 14.0689019097222 1.89995659722222  15.1000434027778 2.93109809027778  15.8600260416667 4.2333984375  Z " fill-rule="nonzero" fill="#000000" stroke="none" transform="matrix(1 0 0 1 587 452 )" />
  </g>
</svg>